# xmcd
#
# Track frame offsets:
#	150
#	12997
#	24861
#	38250
#	55830
#	72520
#	84299
#	95296
#	107925
#	120557
#
# Disc length: 1805 seconds
#
# Revision: 0
# Processed by: cddbd v1.5.2PL0 Copyright (c) Steve Scherf et al.
# Submitted via: dBpowerAMP V4.0
#
DISCID=6e070b0a
DTITLE=Freddy Fender - Tex-Mex Legend
DYEAR=2004
DGENRE=Country
TTITLE0=Wasted Days And Wasted Nights
TTITLE1=Before The Next Teardrop Falls (Spanish)
TTITLE2=Since I Met You Baby
TTITLE3=Cowboy Peyton Place
TTITLE4=Secret Love (Spanish)
TTITLE5=Yours
TTITLE6=Chokin' Kind
TTITLE7=Vaya Con Dios
TTITLE8=Squeeze Box
TTITLE9=La Bamba
EXTD=
EXTT0=
EXTT1=
EXTT2=
EXTT3=
EXTT4=
EXTT5=
EXTT6=
EXTT7=
EXTT8=
EXTT9=
PLAYORDER=
